<svg width="102" height="36" viewBox="0 0 102 36" fill="none" xmlns="http://www.w3.org/2000/svg">
<path fill-rule="evenodd" clip-rule="evenodd" d="M9.42114 0H26.1223C31.3296 0 35.5434 4.26795 35.5434 9.54217V26.4578C35.5434 31.7321 31.3296 36 26.1223 36H9.42114C4.21382 36 0 31.7321 0 26.4578V9.54217C0 4.26795 4.21382 0 9.42114 0ZM6.53485 9.58554H2.98051V26.4145H6.53485V9.58554ZM11.7764 21.947C11.7936 21.0708 11.9306 20.4983 12.1961 20.2294C12.3931 19.9605 12.7014 19.7783 13.104 19.6742C13.4979 19.5701 13.5151 19.5788 14.3458 19.5701H15.2879C17.018 19.5701 17.4205 19.3099 18.2856 18.7894C18.868 18.4337 19.2277 17.8439 19.5617 17.0892C19.8957 16.3431 20.0585 15.4757 20.0585 14.5041C20.0585 13.7147 19.9214 12.9774 19.6559 12.3007C19.3904 11.6154 19.005 11.0776 18.5083 10.6699C17.6775 9.94988 16.9838 9.58554 14.0718 9.58554H8.50472V12.587H13.3266C14.2602 12.587 14.9282 12.7171 15.3479 12.9687C15.896 13.3243 16.1701 13.8795 16.1701 14.6342C16.1701 15.3282 15.8703 15.8487 15.2708 16.1957C14.8854 16.4125 14.5428 16.5253 13.6264 16.5253H13.0526C11.922 16.5253 11.648 16.6034 11.1169 16.7508C10.5859 16.8983 10.0978 17.1933 9.64382 17.6357C8.68458 18.6246 8.21352 20.0646 8.24778 21.947V26.4145H19.6217V23.439H11.7593V21.947H11.7764ZM26.1137 26.4145C27.3556 26.4145 28.2891 26.3537 28.9143 26.2236C29.5396 26.0935 30.1134 25.8593 30.6444 25.5036C31.8435 24.7316 32.4344 23.5431 32.4344 21.947C32.4344 20.2121 31.6979 18.8588 30.2162 17.8872C31.6979 17.0111 32.4344 15.7966 32.4344 14.2265C32.4344 13.3157 32.2631 12.4308 31.7664 11.6328C31.2696 10.774 30.5074 10.2275 29.6423 9.90651C29.2741 9.76771 28.94 9.68964 28.6317 9.65494C28.3234 9.62024 27.6211 9.59422 26.5248 9.57687H21.78V12.5783H25.9081C26.4905 12.5783 26.9016 12.5957 27.1415 12.639C27.3813 12.6824 27.5954 12.7692 27.7752 12.908C28.272 13.2463 28.5204 13.7841 28.5204 14.5214C28.5204 15.1981 28.3319 15.6925 27.9465 16.0135C27.6296 16.2824 26.953 16.4212 25.9081 16.4212H23.3559V19.3966H25.9081C26.7732 19.3966 27.3813 19.5007 27.7239 19.7002C28.272 20.0212 28.5461 20.6024 28.5461 21.4439C28.5461 22.1378 28.3319 22.6583 27.8951 23.0053C27.544 23.2916 26.8845 23.4304 25.8996 23.4304H21.7714V26.4058H26.1137V26.4145Z" fill="#597DFC"/>
<path fill-rule="evenodd" clip-rule="evenodd" d="M72.5857 15.9353H74.3842L74.3671 20.0124H78.8293L78.855 15.9266H92.8754V16.4124C92.8754 16.6032 92.8068 16.7854 92.6784 16.9328C92.5242 17.063 92.3444 17.1324 92.1302 17.1324H89.4752V20.0037H94.3742C94.8281 20.0037 95.2221 19.9169 95.5647 19.7435C95.933 19.57 96.2498 19.3444 96.5325 19.0582C96.7894 18.8153 97.0121 18.4943 97.2091 18.0779C97.3547 17.7483 97.4318 17.3492 97.4318 16.8721V15.9266H99.513V13.2201H97.4318V9.7155C97.4318 8.91743 97.2348 7.78104 95.1793 7.78104H85.2956L85.2871 6.50586H80.2939L80.2767 7.78104H76.4055C75.2835 7.78104 74.3842 8.70056 74.3842 9.82827V13.2288H72.5857V15.9353ZM83.2401 13.2288H78.855V10.583H91.9333C92.3187 10.583 92.567 10.6524 92.6869 10.7825C92.8068 10.9126 92.8668 11.1381 92.8668 11.4678V13.2288H87.7794L86.9229 10.982H82.4179L83.2401 13.2288Z" fill="#597DFC"/>
<path fill-rule="evenodd" clip-rule="evenodd" d="M72.0204 29.5632H99.6243V26.8567H98.3396V24.2803C98.3396 24.2493 98.3396 24.2183 98.3397 24.1874C98.3406 22.6197 98.3415 21.2182 95.8302 21.2182H73.0481V26.8567H72.0204V29.5632ZM80.2682 26.8567H77.5617V23.9247H80.2682V26.8567ZM84.3535 23.916H87.2141V26.848H84.3535V23.916ZM91.2566 26.848V23.916L94.1001 23.9333L94.0915 26.848H91.2566Z" fill="#597DFC"/>
<path d="M87.0086 16.5165H82.5035L83.6683 19.648H88.1391L87.0086 16.5165Z" fill="#597DFC"/>
<path d="M41.376 18.1733H46.943L43.1146 26.2582C42.378 27.8109 43.5 29.6153 45.2044 29.6153H65.1087C66.8216 29.6153 67.9522 27.8109 67.207 26.2495L64.6548 20.8885H59.9528L62.2053 26.2582H47.8766L51.705 18.1733H69.5366V14.8162H41.376V18.1733Z" fill="#597DFC"/>
<path d="M67.6353 6.95694H43.2688V10.3141H67.6353V6.95694Z" fill="#597DFC"/>
</svg>
